<svg width="20" height="20" viewBox="0 0 20 20" fill="none" xmlns="http://www.w3.org/2000/svg">
<path d="M19.6599 8.24873L10.6599 0.248734C10.4774 0.0884152 10.2428 0 9.99988 0C9.75697 0 9.52236 0.0884152 9.33988 0.248734L0.339875 8.24873C0.186911 8.38405 0.0790427 8.56295 0.0307741 8.76139C-0.0174945 8.95982 -0.00384947 9.16828 0.0698747 9.35873C0.142393 9.54667 0.26998 9.70832 0.435924 9.82252C0.601868 9.93672 0.798434 9.99814 0.999875 9.99873H1.99987V18.9987C1.99987 19.264 2.10523 19.5183 2.29277 19.7058C2.4803 19.8934 2.73466 19.9987 2.99987 19.9987H16.9999C17.2651 19.9987 17.5194 19.8934 17.707 19.7058C17.8945 19.5183 17.9999 19.264 17.9999 18.9987V9.99873H18.9999C19.2013 9.99814 19.3979 9.93672 19.5638 9.82252C19.7298 9.70832 19.8574 9.54667 19.9299 9.35873C20.0036 9.16828 20.0172 8.95982 19.969 8.76139C19.9207 8.56295 19.8128 8.38405 19.6599 8.24873ZM10.9999 17.9987H8.99988V14.9987C8.99988 14.7335 9.10523 14.4792 9.29277 14.2916C9.4803 14.1041 9.73466 13.9987 9.99988 13.9987C10.2651 13.9987 10.5194 14.1041 10.707 14.2916C10.8945 14.4792 10.9999 14.7335 10.9999 14.9987V17.9987ZM15.9999 17.9987H12.9999V14.9987C12.9999 14.2031 12.6838 13.44 12.1212 12.8774C11.5586 12.3148 10.7955 11.9987 9.99988 11.9987C9.20423 11.9987 8.44116 12.3148 7.87855 12.8774C7.31594 13.44 6.99987 14.2031 6.99987 14.9987V17.9987H3.99987V9.99873H15.9999V17.9987ZM3.62987 7.99873L9.99988 2.33873L16.3699 7.99873H3.62987Z" fill="white"/>
</svg>
